<svg width="52" height="70" viewBox="0 0 52 70" fill="none" xmlns="http://www.w3.org/2000/svg">
<path d="M20.1243 25.0579C19.4192 24.8917 18.503 24.022 17.9837 23.5401C17.9743 23.5315 17.9649 23.5229 17.9555 23.5143C17.8346 23.4015 17.7121 23.3029 17.5664 23.1865C17.222 22.912 16.7629 22.544 15.8781 21.6427C15.5884 21.4368 15.2857 21.2183 14.9979 21.007C12.1593 18.9231 9.37715 16.7137 6.59546 14.5008C6.58777 14.4944 6.5801 14.4882 6.57246 14.4819C6.3375 14.2891 6.11519 14.1184 5.89866 13.9678C5.86864 13.9533 5.83771 13.9387 5.80569 13.9239C5.50724 13.7839 5.202 13.6918 5.0861 13.6729C4.95442 13.6515 5.12022 13.6799 5.31622 13.5562C5.56776 13.4047 5.67057 13.1816 5.62183 13.1383C5.58146 13.0842 5.4716 13.1415 5.37459 13.2306C5.30029 13.3477 5.21949 13.518 5.1439 13.7197C5.13254 13.7512 5.12135 13.7828 5.11033 13.8143C4.3554 15.9321 4.36727 18.3526 5.23334 20.5464C5.42595 21.0379 5.6594 21.5158 5.92804 21.9643L5.69282 21.6454C5.7176 21.6735 5.7424 21.7015 5.76724 21.7294C5.9701 21.9579 6.17562 22.1826 6.38433 22.404C6.98206 23.0381 7.60345 23.6469 8.24681 24.2267C8.66306 24.5209 9.07515 24.7792 9.45945 25.011C9.99969 25.3369 10.4857 25.6111 10.8581 25.8698C11.7532 26.4941 12.6699 27.3204 13.3781 27.9173C13.4937 28.0151 13.6033 28.1069 13.7053 28.1905C14.3402 28.5607 14.9868 28.9119 15.6424 29.2471C15.6692 29.2966 15.6958 29.3474 15.7229 29.3993C16.0635 30.047 16.7403 30.4417 17.8283 31.0175C18.3024 31.2678 18.8571 31.553 19.5023 31.9052C19.9204 32.1329 20.0704 32.3749 20.1986 32.5757C20.2354 32.6342 20.27 32.689 20.3084 32.7381C20.4179 32.8784 20.5945 32.8981 20.8063 32.8963L20.7212 32.8586C20.7421 32.8574 20.7634 32.8559 20.785 32.8543C20.8069 32.8527 20.8291 32.851 20.8516 32.8493C21.2015 32.8237 21.6238 32.7939 22.0194 33.1428C23.2925 34.2574 24.0855 34.1866 24.6779 34.1422C24.851 34.1285 25.0087 34.1172 25.1586 34.1379C25.637 34.2019 26.2121 34.5928 26.6154 34.956C26.9405 35.2458 27.7268 35.4406 28.3502 35.5412C28.5823 35.5776 28.8736 35.7086 29.2083 35.8614C29.558 36.0211 29.9604 36.2058 30.4157 36.3483C31.5619 36.7091 32.1599 36.9313 32.6417 37.1093C32.7784 37.1602 32.9058 37.2087 33.0334 37.257C33.4358 37.4094 33.9258 37.6236 34.4184 37.848C35.0087 38.1166 35.6026 38.4002 36.0619 38.6017C37.174 39.3147 38.2775 40.0508 39.3782 40.7878C39.9431 41.1678 40.4389 41.6456 40.7758 42.064C41.1118 42.486 41.263 42.8107 41.1729 43.0302C41.0827 43.2498 40.7503 43.3664 40.2222 43.4203C39.6957 43.4709 39.018 43.4522 38.3583 43.3191C37.0303 43.0479 35.6989 42.7907 34.373 42.5189C32.7578 42.1873 31.1537 41.8346 29.5799 41.3902C28.4793 41.0795 27.3917 40.7411 26.3103 40.3701C26.1985 40.3318 26.0873 40.2931 25.9766 40.2544C25.0001 40.1208 24.0296 39.9693 23.3667 39.8044C22.8218 39.6695 22.4709 39.4459 22.1688 39.2507C21.9636 39.1176 21.7808 38.9978 21.5747 38.9306C21.4641 38.8945 21.3141 38.8511 21.1273 38.7956C20.5281 38.6187 19.5879 38.3321 18.6951 37.8909C18.6772 37.882 18.6593 37.8731 18.6415 37.8641L18.4986 37.8008C18.2904 37.6848 18.0872 37.5615 17.8938 37.4312C17.4244 37.1161 16.9176 36.688 16.4373 36.2696C15.7511 35.6724 15.1335 35.101 14.7416 34.9466C14.0558 34.678 13.38 34.1675 12.7959 33.7041C12.2364 33.2613 11.7617 32.8643 11.4022 32.7655C10.9747 32.6485 10.7107 32.3922 10.3271 32.0075C10.0623 31.7409 9.73845 31.4118 9.2682 31.0113C8.72478 30.5475 8.39784 30.1506 8.12293 29.8125C7.73726 29.3356 7.4557 28.9774 6.84794 28.6522C6.17277 28.2904 5.52475 27.8314 5.12639 27.3581C4.9447 27.1426 4.71397 26.9203 4.47678 26.6868C4.16249 26.3776 3.8363 26.0471 3.596 25.6943C3.39731 25.4029 3.30367 25.1002 3.22202 24.8324C3.19649 24.7487 3.17227 24.6688 3.14676 24.5937C3.05937 24.4973 2.97203 24.4004 2.88467 24.3033C2.85781 24.2735 2.83096 24.2436 2.8041 24.2137L2.62126 23.9658C2.56252 23.8697 2.50358 23.771 2.44638 23.6731C2.40388 23.6417 2.35818 23.6088 2.31075 23.5738C2.07343 23.3989 1.783 23.1715 1.53848 22.8252C1.15206 22.2758 1.00627 21.6961 0.890636 21.094C0.800835 20.6227 0.728373 20.1346 0.584544 19.5898C0.486451 19.2183 0.354783 18.7955 0.244612 18.3688C0.0790286 17.735 -0.0342443 17.0872 0.00943041 16.6348C0.0254145 16.466 0.107902 16.3193 0.191593 16.1792C0.192101 16.1786 0.192609 16.178 0.193117 16.1773C0.198804 16.1678 0.204367 16.1582 0.210042 16.1487C0.166485 15.0656 0.239267 13.9709 0.425969 12.8943C0.427606 12.8046 0.430595 12.7136 0.434612 12.6229C0.434896 12.6165 0.435186 12.6101 0.435481 12.6036C0.437456 12.5605 0.439635 12.5175 0.441955 12.4745C0.470734 12.0176 0.542231 11.5415 0.569235 11.1722C0.616918 10.7687 0.905893 9.57059 2.35461 8.47482C3.29274 7.77196 4.55717 7.52505 5.35083 7.50486C5.84022 7.48462 6.22888 7.64144 6.58317 7.81882C6.90631 7.98347 7.20215 8.16904 7.52448 8.27591C7.68985 8.33103 7.86953 8.37143 8.0564 8.41824C8.22651 8.46212 8.38982 8.50503 8.55971 8.5704C8.72069 8.63254 9.02202 8.8467 9.35844 9.12231C9.53448 9.26408 9.70152 9.40872 9.89293 9.57175C9.90418 9.58136 9.91548 9.59101 9.92683 9.60071C9.95839 9.62886 9.99032 9.6571 10.0226 9.68536C10.6346 10.0398 11.2359 10.392 11.8402 10.7532C12.001 10.7765 12.1578 10.7709 12.308 10.7286C12.4152 10.6978 12.5258 10.6489 12.638 10.5984C12.7909 10.5297 12.9489 10.4589 13.1175 10.4319C13.2492 10.4109 13.3632 10.4452 13.4036 10.52C13.4224 10.5548 13.4254 10.598 13.4282 10.637C13.4313 10.6818 13.4342 10.7216 13.4599 10.7384C13.4784 10.7504 13.5114 10.7432 13.5517 10.7348C13.616 10.7213 13.6994 10.7042 13.7736 10.7532C14.0507 10.9364 14.3563 11.1742 14.6468 11.402C14.9664 11.6528 15.2949 11.9103 15.5655 12.0793C15.8668 12.2671 16.2423 12.6464 16.6038 13.0174C16.8542 13.2749 17.1185 13.5429 17.3508 13.7423C17.5777 13.9373 17.8672 14.0838 18.1435 14.2231C18.4744 14.3897 18.7916 14.5498 18.9889 14.7939C19.0284 14.8431 19.0304 14.9679 19.0327 15.124C19.0343 15.2346 19.0364 15.3613 19.0512 15.4876C19.3543 15.7101 19.6679 15.9466 19.9641 16.1757C19.9828 16.1728 20.0019 16.1699 20.0213 16.1668C20.0216 16.1666 20.022 16.1665 20.0224 16.1664C20.4649 16.1004 21.0676 16.0085 21.3975 16.5796C21.4821 16.7254 21.4863 16.8805 21.4899 17.02C21.4934 17.157 21.4962 17.2793 21.572 17.362C21.6565 17.4545 21.8192 17.4951 21.9937 17.5377C22.2398 17.5983 22.5078 17.6613 22.6494 17.9015C22.6593 17.9181 22.6698 17.936 22.681 17.9544C22.7865 18.129 22.9399 18.3858 23.0179 18.726C23.6354 19.2782 24.2258 19.8292 24.8235 20.4043C25.8138 21.3599 26.7835 22.3412 27.7427 23.394C28.2098 23.9095 28.5113 24.6109 28.5302 25.3556C28.5404 25.7296 28.4837 26.1044 28.3331 26.4361C28.2613 26.6085 28.1528 26.7475 28.019 26.86C27.8803 26.9638 27.7126 26.958 27.5538 26.9478C27.2176 26.8842 26.951 27.2179 26.7157 27.369C26.4741 27.5403 26.2121 27.6436 25.9252 27.6865C25.3565 27.7738 24.7531 27.6117 24.2605 27.2643C23.4584 26.697 22.5922 26.1223 21.7296 25.5563C21.6804 25.5335 21.6311 25.5101 21.5821 25.4861C21.2137 25.3036 20.8118 25.2137 20.4037 25.1212C20.3093 25.0994 20.215 25.0779 20.1243 25.0579Z" fill="black"/>
<path d="M26.4213 11.5692C26.8215 10.6774 28.1855 9.47964 28.9588 8.84287C28.9729 8.83095 28.9869 8.81904 29.001 8.80715C29.1859 8.65333 29.3438 8.50918 29.5447 8.32703C30.0123 7.90909 30.6396 7.32609 32.1476 6.32223C32.5451 5.98008 32.9504 5.64646 33.3692 5.31939C35.4468 3.68678 37.8116 2.25945 40.2033 1.17154C40.2095 1.16869 40.2157 1.16584 40.2219 1.16299C42.6303 0.00364089 45.4335 -0.147453 47.6183 0.10366C47.6219 0.104019 47.6255 0.104377 47.629 0.104734C48.301 0.151609 49.1865 0.343525 50.032 0.991596C50.8876 1.63032 51.4029 2.66624 51.5471 3.41346C51.8202 4.93985 51.4955 5.69817 51.2781 6.3683C51.2745 6.3781 51.2708 6.3879 51.2671 6.39768C51.2381 6.47347 51.2071 6.55141 51.1757 6.62694C51.141 6.72481 51.1009 6.83076 51.0636 6.92517C50.2906 8.77676 49.3138 10.0935 48.5892 10.9313C47.6649 11.9521 47.0005 12.5784 46.4514 13.0907C44.9571 14.7887 43.4354 16.448 41.9264 18.0987C41.9209 18.1047 41.9154 18.1107 41.91 18.1166C40.6066 19.5406 39.3011 20.9775 38.0224 22.4235C37.1578 23.4009 36.302 24.3865 35.4581 25.3827C34.6817 26.2992 33.9147 27.2198 33.1519 28.1494C32.7562 28.7279 32.3909 29.2916 32.0534 29.8128C31.5787 30.5458 31.1561 31.1982 30.7695 31.7042C29.8373 32.9243 28.6184 34.1704 27.7144 35.0955C27.5664 35.247 27.4269 35.3898 27.2987 35.5222C26.6714 36.3342 26.0468 37.1491 25.4252 37.9637C25.3597 37.9982 25.293 38.0322 25.2251 38.0667C24.3812 38.4917 23.6873 39.3218 22.6078 40.6205C22.1417 41.1814 21.5922 41.8434 20.9311 42.5958C20.5037 43.0823 20.1775 43.2449 19.9145 43.3736C19.8356 43.4134 19.7619 43.4506 19.6926 43.4924C19.4547 43.6361 19.3585 43.9077 19.244 44.2302C19.0893 44.6561 18.9166 45.1523 18.3666 45.5645C18.2922 45.62 18.2206 45.6744 18.152 45.728C18.1395 45.7376 18.1272 45.7473 18.115 45.7569L18.2424 45.5834C16.8471 46.9464 16.6541 47.8535 16.5047 48.5405C16.4559 48.7575 16.4123 48.9522 16.3407 49.1324C16.1152 49.7059 15.5151 50.3929 15.0202 50.8475C14.6125 51.2316 14.1631 52.1794 13.8747 52.9383C13.7722 53.2142 13.5459 53.5739 13.2951 53.9754C13.0418 54.3797 12.7264 54.8915 12.4709 55.434C11.8135 56.8252 11.4586 57.5847 11.1927 58.1616C11.1123 58.3352 11.0388 58.4944 10.9679 58.6511C10.7481 59.1371 10.4491 59.755 10.1667 60.3678C9.82477 61.1073 9.50471 61.8495 9.30362 62.422C8.5687 63.81 7.90173 65.2804 7.65471 66.5124C7.60478 66.764 7.54734 66.9869 7.48434 67.1807C7.48401 67.1817 7.48368 67.1827 7.48334 67.1837L7.42789 66.8914C7.36356 67.1412 7.12632 67.4383 7.06079 67.8205C6.94439 68.4736 7.08281 68.979 6.86897 69.1733C6.66796 69.3598 6.25583 69.4071 5.42157 69.1067C4.93777 68.919 4.31656 68.46 4.01926 67.8147L3.97343 67.5732C3.97276 67.571 3.9721 67.5689 3.97143 67.5667C3.84126 67.1319 3.78366 66.6759 3.78602 66.2358C3.83292 64.064 4.34547 62.2491 4.8912 60.4483C5.57493 58.2763 6.42327 56.1916 7.37689 54.207C8.04931 52.8126 8.7674 51.4544 9.52684 50.1226C9.60469 49.9861 9.68383 49.8487 9.76398 49.7104C10.24 48.5021 10.7495 47.3063 11.1655 46.4955C11.4987 45.8417 11.8757 45.4019 12.1772 45.0644C12.3895 44.8246 12.5806 44.6104 12.7287 44.3607C12.8086 44.226 12.9132 44.0405 13.035 43.8254C13.2201 43.4989 13.4579 43.0846 13.7445 42.6222L13.9439 42.3507C13.9533 42.3384 13.9628 42.3261 13.9724 42.3138C14.5193 41.6064 15.1895 40.8018 15.9023 40.109C16.4068 39.6198 17.0455 39.087 17.6577 38.5777C18.5262 37.8576 19.3456 37.1791 19.6338 36.7458C20.1507 35.9715 20.8928 35.2271 21.5546 34.564C22.1833 33.9345 22.7356 33.3821 22.9301 32.9694C23.1644 32.4738 23.4977 32.1704 23.9971 31.7146C24.3423 31.3999 24.7668 31.0122 25.2897 30.4423C25.8941 29.7837 26.379 29.3671 26.7912 29.0129C27.3716 28.5142 27.808 28.1391 28.2321 27.3882C28.7035 26.5538 29.2541 25.729 29.7983 25.1787C30.0476 24.9265 30.305 24.6144 30.5707 24.2921C30.9264 23.8607 31.2936 23.4153 31.692 23.0476C32.0188 22.7464 32.3555 22.5627 32.6588 22.3937C32.753 22.3415 32.843 22.2915 32.9276 22.2412C33.1522 21.974 33.3765 21.7059 33.6009 21.4351C33.6208 21.3776 33.6406 21.3163 33.6615 21.2527C33.7649 20.9347 33.8963 20.5393 34.1437 20.1276C34.5345 19.4768 35.0171 19.0254 35.5311 18.5428C35.9242 18.1755 36.3426 17.7818 36.7386 17.2739C37.0108 16.925 37.2882 16.5072 37.5641 16.091C37.7932 15.7432 38.0391 15.3751 38.2561 15.0809C38.2608 15.0744 38.2656 15.068 38.2704 15.0616C38.4343 14.842 38.5897 14.653 38.7365 14.5094C38.8674 14.382 39.0443 14.3033 39.2119 14.2351C39.2127 14.2349 39.2136 14.2346 39.2145 14.2344C39.2259 14.2297 39.2373 14.2248 39.2487 14.2201C39.9837 13.23 40.698 12.2483 41.4135 11.244C41.4634 11.1473 41.5134 11.051 41.5621 10.9567C41.8068 10.4876 42.0418 10.0315 42.127 9.69404C42.2285 9.31639 42.7031 8.57376 43.182 7.78754C43.4948 7.27434 43.8051 6.74622 44.011 6.30695C44.1327 6.04858 44.35 5.88632 44.5697 5.71609C44.7731 5.55954 44.9759 5.40005 45.0831 5.17685C45.1376 5.0635 45.1677 4.93766 45.191 4.812C45.21 4.70421 45.2248 4.59373 45.2405 4.50543C45.2484 4.46197 45.2813 4.40535 45.3209 4.34999C45.3222 4.34811 45.3236 4.34625 45.3249 4.34441C45.3604 4.29743 45.3998 4.25395 45.4308 4.28059C45.5004 4.31085 45.3989 4.51628 45.8199 5.236C45.9928 5.55089 46.33 5.8651 46.6282 6.01431C46.9292 6.17082 47.1616 6.20738 47.3141 6.22494C47.3113 6.22497 47.3085 6.225 47.3057 6.22503C46.7738 6.23076 46.2977 6.26587 45.8479 6.33544C45.7102 6.42126 45.5982 6.53095 45.5208 6.66561C45.4642 6.76234 45.4236 6.87533 45.3834 6.99132C45.3297 7.14911 45.2789 7.31263 45.2035 7.45211C45.1447 7.56104 45.0683 7.61769 45.0032 7.59316C44.9731 7.58164 44.9453 7.55289 44.9198 7.52703C44.8906 7.49743 44.8642 7.47126 44.8413 7.47835C44.8247 7.48354 44.8132 7.51306 44.7994 7.54891C44.7771 7.60628 44.7507 7.67995 44.6869 7.70185C44.4504 7.78295 44.1852 7.86101 43.9278 7.95635C43.8455 7.98671 43.764 8.0187 43.6843 8.05277C43.679 8.05515 43.6738 8.05753 43.6686 8.0599C43.3665 8.19735 43.0878 8.335 42.8617 8.4709C42.5015 8.68708 41.9369 8.89142 41.3778 9.11678C40.9873 9.27362 40.5985 9.44088 40.2852 9.61356C39.9753 9.78445 39.7008 10.0344 39.4412 10.2798C39.1266 10.5764 38.8331 10.8664 38.5028 11.0119C38.4358 11.0413 38.3011 11.0141 38.1356 10.9785C38.0177 10.9537 37.8816 10.9267 37.7394 10.9154C37.3787 11.1971 37.022 11.4807 36.663 11.7712C36.6594 11.7924 36.6556 11.8142 36.652 11.8363C36.652 11.8367 36.652 11.8371 36.652 11.8375C36.5738 12.3324 36.4826 12.9999 35.7631 13.2868C35.5813 13.3589 35.4096 13.3452 35.2543 13.3337C35.1014 13.3229 34.9651 13.313 34.8519 13.3893C34.7227 13.4765 34.6348 13.652 34.5378 13.8456C34.407 14.1124 34.2605 14.4138 33.9572 14.5575C33.9367 14.567 33.9146 14.5771 33.8918 14.588C33.6776 14.6888 33.3459 14.855 32.9477 14.9287C32.1866 15.6034 31.4279 16.2911 30.6738 16.9878C29.4089 18.1579 28.1605 19.3482 26.9217 20.5713C26.3128 21.1723 25.557 21.5884 24.7894 21.7296C24.0228 21.8685 23.303 21.7306 22.7881 21.3072C22.2726 20.8848 21.9973 20.2041 21.9998 19.4156C22.0039 18.6262 22.2968 17.7884 22.814 17.069C23.6484 15.9083 24.5011 14.7551 25.3891 13.6168C25.43 13.5513 25.4713 13.4861 25.5129 13.422C25.8163 12.9513 26.0441 12.4298 26.2622 11.9243C26.3151 11.8053 26.3677 11.6867 26.4213 11.5692Z" fill="black"/>
</svg>
