<svg width="534" height="61" viewBox="0 0 534 61" fill="none" xmlns="http://www.w3.org/2000/svg">
<path d="M4.57511 31.0259C5.78541 30.2596 7.15361 29.4184 8.57488 28.5602C8.62537 28.5298 8.67618 28.4991 8.72731 28.4683C11.1859 26.9857 13.7521 25.479 15.9175 24.2331C17.0101 23.6034 16.5602 24.1026 17.3157 23.6768C18.7869 22.8474 20.0815 21.932 21.5402 21.1234C22.0275 20.8541 21.5987 21.4723 22.1031 21.1861C24.8682 19.6153 27.382 17.9522 30.1456 16.2951C36.4038 12.5438 42.6002 8.77051 48.7859 5.0011C48.7887 4.9994 48.7914 4.9977 48.7942 4.99601C50.492 3.96314 52.1013 2.88526 53.7957 1.79717C54.2266 1.52203 54.6536 1.25205 55.1055 0.982052C55.3484 0.837997 55.5815 0.702671 55.8459 0.561966C55.9983 0.482193 56.1198 0.418859 56.3209 0.328683C56.4105 0.288973 56.515 0.243873 56.6652 0.190476C56.7966 0.14735 56.9942 0.0680184 57.3955 0.0195577C57.6183 0.0129347 58.063 -0.0951939 58.8799 0.278262C59.4007 0.515224 59.9658 1.11739 60.1623 1.70651C60.3392 2.20414 60.3341 2.55105 60.3152 2.83563C60.3036 2.97578 60.2833 3.09488 60.2606 3.19899C60.2404 3.28966 60.2278 3.33475 60.2105 3.39455C60.1774 3.50675 60.1431 3.5997 60.1098 3.68142C60.0375 3.85557 59.9935 3.93604 59.9508 4.01698C59.8616 4.18132 59.7911 4.28958 59.7328 4.37864C59.6702 4.47323 59.6127 4.55441 59.5643 4.62149C59.3531 4.91137 59.191 5.1105 59.0098 5.33114C58.6678 5.745 58.3357 6.12421 58.0071 6.49362C57.6291 6.91783 57.256 7.33493 56.8823 7.7564C54.2213 10.7649 51.5758 13.8698 48.9325 16.9954C46.8802 19.4263 44.4986 22.1165 42.2298 24.8356C41.8532 25.287 41.4717 25.7501 41.1063 26.2004C40.0261 27.5319 39.0229 28.8629 38.1468 30.1748C37.804 30.6909 38.2858 30.5789 38.2401 30.6907C37.5377 32.4353 37.3394 31.555 36.6065 32.5096C35.1411 34.4582 33.7496 36.6919 33.0404 38.8882C32.8809 39.3899 32.7581 39.8854 32.6946 40.3483C32.6921 40.3521 32.7022 40.2653 32.6559 40.1301C32.6129 39.9949 32.5088 39.8637 32.4612 39.8244C32.3125 39.7345 32.701 39.9272 33.1275 39.954C33.6969 40.0168 34.3123 39.9969 34.9285 39.9204C36.6485 39.6383 34.8087 39.2754 36.6103 39.3075C36.739 39.3042 36.3642 39.7423 36.8588 39.6701C37.9925 39.5209 40.1149 38.7281 40.9925 38.3968C42.6871 37.7743 42.9635 37.6403 44.5374 36.9161C44.668 36.8553 44.8009 36.7935 44.9361 36.7309C45.474 36.4816 46.0375 36.2225 46.6142 35.953C48.2275 35.2019 49.9156 34.3384 51.3612 33.3574C51.8036 33.054 51.0223 33.1372 51.6954 32.6309C52.3867 32.1275 54.1992 30.8566 54.825 30.4381C55.4508 30.0377 55.3843 30.4425 55.5271 30.4073C56.7531 30.1191 58.0933 27.7712 58.2691 27.5156C59.9382 25.5083 61.2473 23.5327 62.2246 21.3981C62.4438 20.9234 62.6101 20.4299 62.8187 19.8893C62.8695 19.7575 62.9124 19.635 62.9423 19.5447C62.9646 19.4801 62.9757 19.428 62.976 19.4494C62.993 19.4804 62.9105 19.5517 63.1103 20.0534C63.2108 20.297 63.517 20.6678 63.8654 20.8301C64.2109 20.9993 64.4644 20.9994 64.5997 20.996C64.871 20.975 64.8619 20.9415 64.8472 20.9503C63.539 21.4265 62.094 22.6252 60.8145 23.9863C59.495 25.3921 58.2505 27.0296 57.0603 28.7037C56.7356 29.1607 56.4078 29.6162 56.0824 30.0724C55.7403 30.5439 55.4551 31.0555 55.3976 31.3074C55.3698 31.4087 55.3954 31.425 55.3806 31.3088C55.3711 31.1936 55.2603 31.0128 55.2252 30.9883C54.9857 30.7804 54.9878 30.855 55.1195 30.8685C55.2505 30.8939 55.4713 30.9101 55.7014 30.9089C60.0576 30.583 64.5258 29.0842 69.1385 27.5036C69.6346 27.3268 68.9134 27.1379 69.5213 26.9197C72.8106 25.7348 76.0956 24.5103 79.3895 23.3155C79.8611 23.1444 80.3331 22.9741 80.811 22.8025C83.1466 22.0051 85.2306 21.1429 88.1531 20.7075C88.6853 20.6631 89.2962 20.5904 90.181 20.8556C91.484 21.4237 90.0696 21.1058 90.638 21.4945C90.7231 21.5598 90.8481 21.6475 91.0073 21.7904C91.5334 22.2501 91.7658 22.9404 91.8035 23.4189C91.8491 23.9149 91.7867 24.3108 91.7079 24.6841C91.5452 25.4044 91.2916 26.0271 91.0268 26.64C90.4909 27.8569 89.8845 29.0127 89.3519 30.1525C88.2802 32.4143 87.5293 34.5603 87.8068 36.0069C87.6955 36.2505 87.5828 36.5002 87.4703 36.7525C87.3339 37.0585 87.2006 37.3684 87.0678 37.6851C87.097 37.6317 87.1886 37.251 87.0349 36.8938C86.8841 36.5471 86.7257 36.4872 86.744 36.4982C86.7687 36.537 87.1329 36.6973 87.5016 36.7963C87.7458 36.8657 88.0121 36.9274 88.2853 36.9827C89.1338 37.1573 89.9972 37.2504 90.8129 37.3366C92.3716 37.4712 90.8859 37.9865 92.8161 37.6523C93.2469 37.5716 92.6411 37.272 93.2934 37.1765C95.3076 36.8756 97.5042 36.583 99.6027 36.1618C99.9479 36.0926 100.265 36.0257 100.605 35.9507C101.018 35.8588 101.444 35.7584 101.849 35.6544C102.412 35.5096 102.192 35.2405 102.341 35.1559C103.591 34.4649 105.962 34.7383 106.462 34.6894C110.241 34.3235 112.916 33.5922 116.364 32.8603C117.164 32.69 116.133 32.4994 116.9 32.3216C120.6 31.4689 124.428 30.6529 128.132 29.993C128.412 29.9432 128.694 29.8937 128.975 29.8456C129.098 29.8244 129.189 29.8168 129.255 29.8189C129.675 29.8275 129.18 30.1976 129.55 30.1496C131.414 29.9082 131.689 29.1866 133.493 28.9527C133.865 28.9048 133.72 29.2342 133.794 29.2518C134.956 29.5272 135.765 28.6456 136.047 28.5804C136.303 28.5193 136.552 28.4665 136.81 28.422C137.026 28.3851 137.242 28.3529 137.501 28.3328C137.632 28.3237 137.77 28.3149 137.975 28.3242C138.178 28.3704 138.47 28.2362 139.214 28.7931C139.913 29.345 140.645 30.7276 140.294 31.8847C139.99 32.9811 139.384 33.5126 138.858 33.9868C137.793 34.8727 136.679 35.4586 135.466 36.2171C135.104 36.4387 136.127 36.2967 135.09 36.8979C133.322 37.9032 131.505 38.7637 129.689 39.6042C128.783 40.0235 127.877 40.4344 126.999 40.853C126.573 41.0569 126.129 41.275 125.742 41.4847C125.539 41.5957 125.368 41.6936 125.207 41.7975C125.083 41.8617 124.907 42.0634 125.093 41.832C125.101 41.8173 125.141 41.7708 125.203 41.609C125.263 41.4558 125.34 41.1018 125.229 40.7306C125.128 40.383 124.923 40.1698 124.829 40.0867C124.707 39.9822 124.666 39.9669 124.627 39.9441C124.51 39.8935 124.657 39.958 124.763 39.9804C127.683 40.5059 131.31 40.5846 134.561 40.8044C135.727 40.8716 134.888 41.1685 134.959 41.2074C136.171 41.8221 136.937 41.0305 137.333 41.003C140.326 40.808 143.136 41.498 145.212 40.516C148.696 40.6014 152.193 40.6098 155.698 40.598C156.147 40.5965 156.602 40.5947 157.064 40.5927C165.836 40.5513 174.659 40.4019 183.365 40.963C183.527 40.9723 183.24 41.3852 183.563 41.402C187.455 41.6084 186.669 40.9745 189.262 40.1803C189.894 39.9812 191.857 40.913 192.034 40.981C192.671 41.2321 192.015 41.8454 192.228 41.8935C194.001 42.2708 193.693 40.2555 196.053 40.2456C196.127 40.2487 195.818 40.6208 196.017 40.6568C196.635 40.7701 197.249 40.6204 197.86 40.7457C199.25 41.036 199.72 42.0112 201.841 41.4357C202.105 41.3612 201.71 40.2217 203.813 40.2709C204.635 40.291 208.403 40.2658 209.425 40.3391C210.466 40.4119 209.752 40.7785 209.826 40.7943C212.639 41.276 211.58 41.4774 212.992 42.1918C214.389 42.9033 214.002 41.2043 214.574 41.0148C215.145 40.8257 217.214 41.2253 217.727 41.3641C218.233 41.5028 217.604 41.734 218.051 41.8126C221.018 42.3262 219.355 40.9729 220.336 40.7057C222.669 40.0748 224.457 41.3346 226.586 41.4636C227.162 41.4987 226.692 41.2122 227.206 41.1874C229.246 41.0939 230.435 41.4883 232.758 41.1441C233.146 41.0877 234.996 40.351 236.201 40.9083C236.372 40.9885 235.884 41.2951 236.748 41.3702C238.045 41.4828 240.361 41.5673 241.748 41.476C242.773 41.4084 241.602 40.8899 242.892 41.0593C243.466 41.1349 242.398 41.4226 243.477 41.5397C244.557 41.6565 247.272 41.6697 248.322 41.671C249.364 41.6716 248.798 41.282 248.882 41.2571C249.399 41.1145 251.386 40.9534 251.563 40.9563C260.455 41.0224 268.646 41.7992 277.306 41.7835C277.987 41.7831 277.542 41.3786 277.646 41.3745C279.977 41.2639 278.119 42.2684 279.733 42.6558C279.517 41.852 280.471 42.0186 282.112 41.9717C282.903 41.9486 282.48 41.6297 282.553 41.5999C283.737 41.1619 284.538 41.7879 284.743 41.9165C285.506 42.3905 286.363 41.877 286.882 42.1943C287.401 42.5089 286.176 42.9222 287.747 42.958C288.195 42.6867 287.048 41.9137 288.245 41.8269C292.757 41.4962 301.144 42.3505 304.756 42.5445C308.364 42.7365 309.531 42.7329 311.631 42.917C312.337 42.9792 312.864 43.0096 313.27 43.0168C313.619 43.023 313.878 43.0121 314.084 42.9895C314.923 42.8979 314.874 42.6118 316.423 42.5206C318.799 42.3836 317.592 43.6381 317.92 43.9338C318.241 44.2287 318.617 43.9559 319.025 44.1281C319.432 44.2999 318.527 44.4515 319.499 44.5514C320.471 44.6501 323.154 44.2739 323.512 44.0011C324.27 43.4214 323.1 42.7165 325.666 43.0726C325.814 43.0934 325.316 43.4073 325.883 43.4698C330.379 43.9539 335.049 44.2204 339.542 44.6967C340.158 44.7624 339.585 45.0912 339.944 45.1331C343.672 45.5701 342.372 44.8911 344.466 44.3532C343.953 45.2071 345.062 45.8108 347.898 45.9764C349.611 46.0784 349.339 45.6844 350.462 45.4881C350.799 45.4294 351.992 45.7598 352.221 45.5987C352.98 45.0748 351.875 44.3609 354.796 44.814C354.924 44.8346 354.494 45.1155 354.938 45.164C357.811 45.4779 358.172 44.9175 361.296 45.0762C363.73 45.2008 368.044 45.8638 370.8 46.1235C370.682 46.983 373.32 46.9658 374.419 46.4685C376.202 46.6286 378.166 46.7497 379.89 46.9632C380.484 47.0363 380.075 47.2398 380.148 47.2711C381.269 47.7543 382.094 47.2749 382.485 47.286C386.708 47.4215 390.094 48.0815 394.142 48.0504C394.285 48.0487 394.557 47.5643 395.598 48.0246C395.665 48.0552 394.326 48.1727 396.206 48.3487C398.087 48.5278 401.618 49.0817 404.266 49.0898C404.907 49.0906 406.538 48.8604 407.793 49.2645C407.962 49.3189 407.762 49.4327 408.005 49.5268C408.79 49.8258 409.268 49.4102 410.175 49.8759C411.081 50.3419 413.009 50.7756 415.677 50.7442C415.762 50.7436 416.415 50.4569 417.239 50.5354C418.565 50.6609 420.454 50.8965 421.826 51.0154C422.484 51.0724 422.08 50.8344 422.195 50.8408C426.683 51.1353 429.804 51.5998 434.589 52.1081C435.451 52.1988 438.005 52.1923 439.672 52.5401C441.498 52.9175 439.52 53.5991 443.817 53.7729C445.522 53.8363 447.828 53.0075 450.876 53.8312C456.897 54.2647 462.434 55.0496 468.461 55.4365C468.721 55.453 469.618 55.2681 470.258 55.3318C471.207 55.4268 471.708 55.5993 472.371 55.6694C472.411 55.6736 472.451 55.6779 472.491 55.682C472.567 55.6901 472.644 55.698 472.72 55.7058C475.443 55.9848 477.898 56.1129 480.536 56.3691C481.572 56.4693 481.189 56.5644 482.42 56.6831C483.688 56.8047 484.466 56.7039 486.168 56.9382C487.42 57.1126 488.67 57.5727 490.326 57.7581C490.4 57.4199 491.595 57.532 493.627 57.6156C494.028 57.6324 493.61 57.4766 493.8 57.4783C494.576 57.4831 495.251 57.6399 495.977 57.6341C496.156 57.6332 496.174 57.517 496.321 57.5096C497.557 57.441 499.542 57.8703 499.876 57.9437C501.174 58.2254 501.815 58.1244 502.814 58.2737C503.832 58.4242 502.298 58.3874 503.486 58.5243C505.925 58.8062 509.075 59.0295 511.559 59.2152C512.537 59.2876 511.881 59.0831 512.021 59.0898C514.079 59.1992 516.151 59.5073 517.307 59.2712C518.672 60.168 518.543 59.2771 521.474 59.6194C521.704 59.6464 521.981 60.0453 521.08 60.0464C520.201 60.0486 518.847 59.8439 517.617 59.8502C517.319 59.8516 515.635 60.0963 515.395 60.1011C513.609 60.1477 513.379 59.5588 513.294 59.5217C512.252 59.11 510.16 59.342 509.641 59.3295C507.181 59.2677 505.066 59.0217 503.027 58.9455C501.666 58.8924 501.532 59.2557 500.455 59.1562C496.941 58.829 495.787 58.2084 492.433 58.3728C491.722 58.4077 492.379 58.8749 489.872 58.3342C489.729 58.3015 487.829 57.8401 486.752 57.9305C486.614 57.9417 486.608 58.0605 486.426 58.0544C485.195 58.0096 484.419 57.8451 483.091 57.7711C481.732 57.6941 480.198 57.6227 478.673 57.4426C477.787 57.3373 476.637 57.0091 476.199 56.9143C474.986 56.6456 473.673 56.7808 472.913 56.5201C472.379 56.3363 472.984 56.2098 472.688 56.0425C472.64 56.0154 472.569 55.9873 472.465 55.9576C472.303 55.9102 472.06 55.8592 471.697 55.8026C471.594 56.1032 471.396 56.403 471.248 56.7012C466.857 56.2821 462.512 55.78 458.12 55.3962C457.566 55.3483 458.116 55.5696 457.522 55.523C455.077 55.3321 452.906 55.0148 450.337 54.84C448.342 54.7048 446.145 54.7084 444.071 54.5859C442.847 54.0899 439.746 53.9599 437.51 53.7398C436.723 53.6618 436.782 53.5563 436.226 53.4738C434.152 53.1665 435.095 53.6151 434.516 53.6265C432.015 53.6798 431.876 52.8147 428.963 52.5904C428.813 52.5769 426.856 52.8911 426.606 52.9035C424.945 52.969 426.35 52.7172 425.322 52.6006C423.441 52.3877 422.125 52.1624 419.905 52.1371C419.261 52.1293 417.653 52.3281 416.437 51.9893C416.276 51.9445 416.381 51.7811 416.25 51.761C413.865 51.4085 413.745 51.9463 412.349 52.0365C410.969 52.1298 408.872 51.5952 408.446 51.4482C407.334 51.0715 409.328 51.3861 409.391 51.3617C410.141 51.0753 408.583 51.017 407.395 50.8986C407.273 50.3214 405.621 50.2239 406.176 50.779C406.24 50.8395 407.161 50.8549 407.395 50.8986C406.316 51.3738 404.496 51.3335 402.515 50.6495C401.597 50.3286 402.515 50.0971 399.65 49.9918C398.347 49.9448 398.816 50.3987 397.656 50.4329C395.031 50.5184 391.646 49.8869 388.954 49.7694C387.972 49.7284 388.908 50.0383 388.235 50.0198C386.44 49.9733 384.909 49.686 383.112 49.6716C382.95 49.6709 383.325 49.964 382.769 49.9339C378.559 49.7138 374.921 49.3211 370.519 49.0632C368.41 48.9392 364.587 48.8954 362.403 48.7469C358.59 48.4899 353.935 47.7779 350.681 47.724C348.552 47.6895 348.997 48.0431 348.072 48.2244C346.296 48.5815 343.236 47.6476 342.822 47.5004C342.81 47.4953 344.644 47.5046 343.678 47.284C343.131 46.8947 342.843 47.4995 342.822 47.5004C342.547 47.4068 338.914 47.1557 338.182 47.1881C337.786 47.2058 337.988 47.5427 337.782 47.546C332.889 47.6189 327.999 47.5068 323.06 47.149C322.973 47.1386 323.122 46.7623 322.918 46.7425C320.062 46.4552 318.204 46.852 315.833 47.0442C315.152 47.0991 314.512 47.1251 313.914 47.1173C313.635 47.1136 313.365 47.1026 313.104 47.0838C311.975 47.0024 311.013 46.7738 310.218 46.3577C308.433 46.3783 305.886 45.9958 304.42 45.7672C302.954 45.5383 302.723 46.2965 302.593 46.3076C298.536 46.6679 296.22 46.1646 292.027 45.9858C290.041 45.8996 286.075 45.9177 283.922 45.9575C282.212 45.9894 281.188 45.7849 279.616 45.8711C279.403 45.8826 279.61 46.2357 279.545 46.2478C277.785 46.6321 278.645 45.7946 278.287 45.635C276.985 45.0552 276.176 44.7418 273.926 44.9628C273.408 45.0129 271.876 46.2236 270.927 46.282C269.696 46.3551 270.168 45.9178 268.881 46.0061C268.771 46.0133 268.789 46.2879 267.997 46.2644C264.315 46.1592 260.299 45.9491 256.474 45.9382C255.953 45.9357 256.615 46.3823 255.862 46.3863C252.309 46.4044 248.424 46.3596 244.98 46.1314C244.134 46.0738 244.667 45.7659 244.484 45.6724C243.353 45.106 241.733 45.91 241.47 45.9246C235.139 46.2869 230.322 45.5352 223.861 45.8881C223.524 45.9083 220.796 46.7946 219.6 46.0377C219.514 45.9874 218.341 45.2114 217.277 45.7447C217.211 45.7781 217.958 46.177 216.653 46.1387C215.34 46.1004 213.296 46.3738 211.486 45.9383C210.919 45.8013 209.578 45.0261 207.914 45.6534C207.801 45.6965 205.189 47.1142 204.269 46.1481C204.114 45.9891 204.287 44.9602 202.267 45.4967C201.881 45.6008 202.583 45.8267 201.566 45.9751C200.008 46.204 197.976 45.9393 196.057 46.4103C195.719 46.4936 194.335 47.2029 193.185 46.679C193.006 46.5969 193.344 46.2501 192.74 46.2155C189.886 46.0492 186.904 46.3015 184.012 46.0845C182.98 46.0083 183.501 45.4456 182.433 45.3038C181.383 45.162 179.2 45.0344 178.093 45.2987C176.985 45.5631 178.206 46.4451 176.543 46.5299C170.006 46.8588 163.639 46.5277 157.095 46.4218C156.633 46.4142 156.176 46.4072 155.726 46.4014C155.391 46.3973 155.06 46.3938 154.732 46.3909C153.649 46.3803 154.534 46.7002 152.971 46.7046C147.087 46.7373 136.914 46.8329 131.762 45.9546C127.655 45.2537 132.853 45.108 129.703 44.7526C128.188 44.5844 126.441 45.4116 126.018 45.3935C125.231 45.3685 124.585 45.3454 123.562 45.1286C123.479 45.1099 123.397 45.09 123.314 45.0681C123.211 45.0409 123.106 45.011 122.999 44.9769C122.897 44.9441 122.775 44.903 122.62 44.8414C122.462 44.7763 122.348 44.7304 122.095 44.5948C121.762 44.3399 120.756 44.0745 120.113 42.0979C119.853 41.1158 120.064 40.2069 120.249 39.7406C120.44 39.2523 120.605 39.0252 120.709 38.8658C121.126 38.2677 121.492 37.9873 121.699 37.816C121.818 37.7218 121.937 37.6352 122.042 37.5623C122.132 37.5 122.221 37.4419 122.309 37.3865C122.686 37.1509 122.942 37.0193 123.231 36.8721C123.779 36.5983 124.283 36.38 124.763 36.174C125.739 35.7568 126.678 35.3697 127.653 34.892C128.242 34.6039 127.499 34.5189 127.997 34.2797C129.696 33.4613 131.524 32.8128 132.936 32.0038C133.551 31.6447 133.305 31.4618 133.84 31.1627C134.461 30.8095 134.996 30.4505 135.238 30.2965C135.359 30.2354 135.367 30.2142 135.279 30.5565C135.162 30.8639 135.215 31.8788 135.563 32.2826C135.615 32.3549 135.577 32.0899 135.627 31.9436C135.652 31.8757 135.693 31.8618 135.763 31.9507C135.831 32.0385 135.953 32.2242 136.048 32.3242C136.081 32.3603 136.101 32.3733 136.1 32.3672C136.673 32.8538 137.154 32.9566 137.367 33.0079C137.595 33.0549 137.698 33.0548 137.763 33.0576C137.886 33.0587 137.874 33.0507 137.851 33.05C137.793 33.0471 137.644 33.057 137.49 33.0717C135.922 33.2426 133.831 33.5894 132.028 34.1787C131.418 34.3796 131.418 34.8696 130.369 34.9424C130.208 34.953 130.02 34.9536 129.793 34.9423C129.557 34.9313 129.601 34.549 129.142 34.6184C128.915 34.653 128.585 34.79 128.036 35.1285C127.756 35.3005 124.914 36.8316 123.3 36.607C122.873 36.5483 121.74 36.1637 120.89 36.4515C120.776 36.4927 121.32 36.72 120.608 36.9114C118.094 37.5813 115.424 38.1333 112.831 38.8059C112.139 38.986 113.253 39.1064 112.218 39.3642C109.371 40.074 105.77 40.7484 102.905 41.1978C101.856 41.3608 102.52 40.928 102.438 40.9114C102.085 40.8379 101.78 40.8431 101.527 40.8905C101.094 40.9714 100.796 41.1653 100.541 41.3324C100.368 41.4475 100.231 41.5474 100.112 41.5824C97.5888 42.3064 95.5966 42.375 93.0958 42.802C92.3983 42.9151 92.9278 43.207 92.7908 43.2563C91.3371 43.7369 92.3899 42.976 91.4389 42.9948C90.2874 43.0036 88.9592 43.003 87.5675 42.8201C87.149 42.7656 86.7169 42.6969 86.249 42.5948C85.4902 42.4077 84.6965 42.2534 83.4736 41.48C82.8831 41.0759 82.0118 40.3953 81.4798 39.0394C80.937 37.6666 81.2198 36.2045 81.5556 35.4408C81.5761 35.3918 81.5966 35.3429 81.617 35.2942C81.9749 34.4382 81.1718 35.2346 81.4984 34.467C81.5279 34.397 81.5574 34.3271 81.5867 34.2573C82.5226 32.0221 83.5957 29.8493 84.6018 27.8147C85.1026 26.7979 85.5884 25.8099 85.9591 24.9489C86.1417 24.5278 86.2911 24.1266 86.3594 23.9192C86.3952 23.8219 86.4014 23.7732 86.4121 23.9186C86.4384 24.0526 86.4088 24.5051 86.8951 25.2688C87.3978 25.9829 87.8508 26.1312 87.9977 26.1725C88.2124 26.1965 88.0972 26.0113 88.1261 25.9451C88.1275 25.9406 88.1296 25.9367 88.1326 25.9336C88.145 25.9184 88.1696 25.9148 88.2162 25.9275C88.6284 26.0405 88.9109 26.009 88.9768 25.9902C89.0514 25.9693 88.9762 25.9699 88.8665 26.0084C88.4405 26.1409 87.7661 26.6365 87.5778 26.7364C86.0809 27.51 85.2915 27.5281 83.8006 28.1385C83.5252 28.2528 83.2519 28.3663 82.9654 28.4848C82.499 28.6774 82.0308 28.8682 81.5567 29.0583C74.3388 31.8819 66.1823 34.9749 58.5049 36.3891C57.6895 36.515 56.8645 36.6208 55.8634 36.6311C55.352 36.6307 54.8336 36.6184 54.1071 36.485C53.4127 36.325 52.465 36.1706 51.2783 35.0804C50.5904 34.4416 49.9435 33.3046 49.7964 32.2519C49.6315 31.1964 49.7981 30.384 49.9716 29.7732C50.4368 28.3033 50.9806 27.5578 51.4756 26.8101C51.812 26.3229 52.1529 25.84 52.5119 25.3703C55.2802 22.0251 57.3604 18.5529 62.8375 15.9176C63.1827 15.7947 63.5499 15.6212 64.4245 15.5738C64.8587 15.5645 65.5039 15.5901 66.2925 15.9747C67.0863 16.3439 67.7804 17.1597 68.0423 17.7781C68.5641 19.0462 68.3983 19.5885 68.383 20.0332C68.3333 20.4645 68.2576 20.7573 68.1842 21.0207C68.0841 21.3692 67.9743 21.6447 67.8592 21.9033C67.6447 22.3548 67.3496 22.9429 67.0958 23.526C66.8565 24.0791 66.5952 24.6372 66.31 25.1939C65.983 25.8208 66.6681 25.3827 66.3878 25.9192C62.54 32.9816 56.2182 37.3148 49.9511 40.7616C49.4267 41.0431 50.3731 40.9957 49.5264 41.4606C49.4878 41.4817 49.4488 41.5029 49.4095 41.5241C48.8664 41.8184 48.2718 42.1228 47.6501 42.4199C46.3666 43.0345 44.9618 43.6193 43.7008 44.0361C42.7638 44.3431 43.8647 43.5481 42.9279 43.8581C40.7319 44.5613 38.3366 45.3435 35.585 45.6946C34.3871 45.8188 36.2598 46.0854 34.6519 46.1919C33.9158 46.2235 33.1406 46.2067 32.3256 46.1033C31.3499 45.9206 30.1774 45.9198 28.3643 44.4657C26.9796 43.4217 26.2502 40.8685 26.5297 39.5765C26.6318 38.6698 26.8167 37.8413 27.0459 37.0777C29.2068 30.7441 32.6614 26.6223 36.2566 22.3659C36.6508 21.9176 37.0584 21.4603 37.4608 21.0169C37.5069 20.9661 37.5532 20.9151 37.5996 20.864C37.9862 20.4399 38.9381 20.5592 39.5824 19.5187C39.4645 19.3045 39.2544 19.1404 39.0917 18.9565C43.307 13.6852 47.6693 8.6466 52.2024 3.64604C52.592 3.21846 52.9775 2.79947 53.3537 2.38924C53.6768 2.03673 54.0088 1.68318 54.2977 1.37185C54.4448 1.21302 54.5784 1.06598 54.6534 0.98531C54.6814 0.961707 54.7161 0.905643 54.6224 1.07911C54.5959 1.1319 54.5777 1.16261 54.5121 1.31451C54.4826 1.38453 54.449 1.47053 54.4133 1.5823C54.3759 1.71026 54.3469 1.77352 54.2919 2.10554C54.2499 2.40025 54.2177 2.81355 54.3396 3.36565C54.4132 3.86941 54.9674 4.93894 55.6808 5.40456C56.4781 5.94214 56.8152 5.94517 57.1755 6.02273C57.516 6.074 57.7633 6.06486 57.9455 6.0506C58.4184 6.00194 58.5531 5.92777 58.6127 5.90978C58.683 5.8821 58.6937 5.87215 58.6919 5.86927C58.6831 5.86491 58.6241 5.88349 58.5485 5.9131C58.4041 5.96851 58.2169 6.05162 58.0133 6.14723C57.6249 6.32795 57.2014 6.53841 56.7744 6.75492C55.0639 7.62632 53.3414 8.55235 51.6409 9.5841C51.6381 9.58579 51.6354 9.58748 51.6326 9.58917C51.0305 9.95479 50.4083 10.3338 49.7861 10.7137C49.3539 10.9777 50.2808 10.8299 49.4591 11.3332C44.645 14.2847 40.0154 17.2403 34.9098 19.9714C34.4014 20.2442 34.3312 19.5662 32.9396 20.5329C32.6956 20.7032 30.5707 22.1082 30.0802 22.5655C30.0146 22.6293 30.5605 22.6276 29.8657 23.0647C25.8281 25.5988 21.5363 28.1641 17.3921 30.5115C16.7261 30.8879 17.268 30.2046 16.7851 30.4749C15.132 31.4008 13.45 32.4511 11.7877 33.472C11.7365 33.5035 11.6857 33.5347 11.635 33.5657C9.91796 34.6186 8.23716 35.6264 6.57116 36.4648C4.32976 37.5842 4.85834 36.6718 3.45926 36.8981C3.26294 36.9339 1.88958 37.6856 1.66845 37.4569C1.15465 36.8895 1.41707 35.834 0.783709 35.2751C0.739845 35.2238 0.448762 35.365 0.238425 35.4459C0.156722 35.4843 -0.0291865 35.5174 0.256694 35.4319C0.300292 35.4222 0.355065 35.4101 0.460915 35.4023C0.51106 35.3988 0.567775 35.3973 0.631097 35.3995C0.713832 35.4028 0.816804 35.4137 0.927266 35.4381C1.10682 35.4679 1.5243 35.6351 1.78192 35.9004C2.07777 36.1889 2.19955 36.4975 2.25452 36.6749C2.35435 37.0443 2.32872 37.0892 2.344 37.1255C2.3518 37.1531 2.35988 37.139 2.36908 37.1407C2.3691 37.1407 2.36913 37.1407 2.36915 37.1407C2.37967 37.1355 2.39291 37.1691 2.40436 37.0915C2.40712 37.0445 2.42076 36.975 2.37993 36.749C2.35595 36.6329 2.31817 36.4792 2.21093 36.2695C2.11209 36.0673 1.89234 35.791 1.67151 35.6289C1.1493 35.248 0.749565 35.2437 0.554644 35.2254C0.349224 35.2166 0.248006 35.2305 0.175361 35.2346C0.04031 35.2452 0.0171668 35.2371 0.0115593 35.213C-0.129947 35.2739 1.07023 34.4908 1.31119 34.183C1.4791 33.9769 0.94836 33.9337 1.3179 33.5813C1.69249 33.2251 2.30323 33.1613 2.96445 32.6021C3.62492 32.0395 3.1217 31.9447 4.57511 31.0259ZM297.817 44.749C296.465 44.3385 296.222 45.6867 297.706 45.4057C297.778 45.3906 297.887 44.7692 297.817 44.749ZM462.601 55.3682C460.815 54.9544 459.61 55.2085 460.828 55.5123C462.047 55.8146 463.145 55.4933 462.601 55.3682ZM481.054 56.9004C478.99 56.5208 478.584 57.2658 480.837 57.3128C480.966 57.3157 481.174 56.9224 481.054 56.9004ZM8.65341 33.6364C8.63549 33.6313 7.67354 34.1981 7.66521 34.2189C7.33529 34.8082 9.23553 33.689 8.65341 33.6364ZM499.37 58.3041C498.723 58.1452 496.852 58.1106 497.642 58.3082C498.269 58.4668 500.173 58.502 499.37 58.3041ZM226.641 42.1665C226.619 42.145 225.826 42.1233 225.842 42.2447C225.894 42.6356 226.999 42.5282 226.641 42.1665ZM530.513 60.4141C525.906 60.147 523.156 59.3446 528.163 59.6907C529.069 59.7522 526.196 59.7909 527.346 59.9106C529.459 60.1297 530.881 59.7971 533.029 60.123C533.417 60.1824 530.776 60.431 530.505 60.4146C530.508 60.4145 530.511 60.4143 530.513 60.4141ZM297.083 43.1001C297.056 43.0813 295.962 43.0302 295.936 43.0472C295.33 43.4591 297.533 43.5612 297.083 43.1001ZM180.447 41.3835C180.378 41.3425 177.826 41.3213 177.751 41.36C176.426 42.1323 181.581 42.1765 180.447 41.3835ZM370.842 46.1498C372.064 45.9006 373.495 45.9788 374.413 46.4676C373.232 46.3548 372.038 46.2607 370.842 46.1498Z" fill="black"/>
</svg>
